<svg xmlns="http://www.w3.org/2000/svg" width="256" height="256" viewBox="0 0 256 256">
  <defs>
    <linearGradient id="bg" x1="0" y1="0" x2="256" y2="256" gradientUnits="userSpaceOnUse">
      <stop offset="0%" stop-color="#050c1a"/>
      <stop offset="100%" stop-color="#0b1a30"/>
    </linearGradient>
    <linearGradient id="wg" x1="28" y1="28" x2="228" y2="228" gradientUnits="userSpaceOnUse">
      <stop offset="0%" stop-color="#BBDEFB"/>
      <stop offset="40%" stop-color="#64B5F6"/>
      <stop offset="75%" stop-color="#2196F3"/>
      <stop offset="100%" stop-color="#0D47A1"/>
    </linearGradient>
    <radialGradient id="gl" cx="128" cy="128" r="115" gradientUnits="userSpaceOnUse">
      <stop offset="0%" stop-color="#42A5F5" stop-opacity="0.14"/>
      <stop offset="100%" stop-color="#42A5F5" stop-opacity="0"/>
    </radialGradient>
  </defs>
  <rect width="256" height="256" rx="48" fill="url(#bg)"/>
  <circle cx="128" cy="128" r="115" fill="url(#gl)"/>
  <circle cx="128" cy="128" r="108" fill="none" stroke="#4a8cb8" stroke-width="6"/>
  <text x="128" y="192" text-anchor="middle" fill="url(#wg)" font-family="'Century Gothic','Futura','Trebuchet MS',sans-serif" font-weight="700" font-size="144">W</text>
  <path d="M8 210 Q48 192 88 210 Q128 228 168 210 Q208 192 248 210" stroke="#5cb8f5" stroke-width="4" fill="none" opacity="0.7" stroke-linecap="round"/>
  <path d="M8 226 Q54 212 100 226 Q146 240 192 226 Q220 218 248 226" stroke="#3a9dea" stroke-width="3" fill="none" opacity="0.5" stroke-linecap="round"/>
  <path d="M8 240 Q48 230 88 240 Q128 250 168 240 Q208 230 248 240" stroke="#1976D2" stroke-width="2.5" fill="none" opacity="0.35" stroke-linecap="round"/>
</svg>
